<svg width="1200" height="850" viewBox="0 0 1200 850" fill="none" xmlns="http://www.w3.org/2000/svg">
  <rect width="1200" height="850" rx="56" fill="#F8FBFF"/>
  <circle cx="980" cy="130" r="210" fill="#00A9E0" fill-opacity="0.14"/>
  <circle cx="175" cy="720" r="250" fill="#EC008C" fill-opacity="0.12"/>
  <path d="M60 760C180 660 284 663 405 735C530 808 670 806 805 710C930 622 1054 584 1155 630" stroke="#FFC400" stroke-width="22" stroke-linecap="round" opacity="0.75"/>
  <g filter="url(#shadow)">
    <rect x="410" y="120" width="380" height="570" rx="42" fill="white"/>
    <rect x="455" y="175" width="290" height="245" rx="30" fill="#081D2A"/>
    <path d="M500 342C550 270 634 258 698 340" stroke="#00A9E0" stroke-width="18" stroke-linecap="round"/>
    <circle cx="600" cy="270" r="47" fill="#EC008C"/>
    <path d="M526 460H676" stroke="#081D2A" stroke-width="20" stroke-linecap="round"/>
    <path d="M505 520H698" stroke="#081D2A" stroke-opacity="0.34" stroke-width="14" stroke-linecap="round"/>
    <path d="M535 570H668" stroke="#081D2A" stroke-opacity="0.2" stroke-width="14" stroke-linecap="round"/>
    <rect x="505" y="615" width="190" height="34" rx="17" fill="#FFC400"/>
  </g>
  <text x="600" y="780" text-anchor="middle" font-family="Arial, Helvetica, sans-serif" font-weight="700" font-size="42" fill="#081D2A">Featured product image</text>
  <defs>
    <filter id="shadow" x="340" y="60" width="520" height="720" filterUnits="userSpaceOnUse" color-interpolation-filters="sRGB">
      <feDropShadow dx="0" dy="30" stdDeviation="34" flood-color="#0A1D2B" flood-opacity="0.18"/>
    </filter>
  </defs>
</svg>